<?xml version="1.0" encoding="UTF-8" standalone="no"?>
<svg
   width="460.8pt"
   height="345.6pt"
   viewBox="0 0 460.8 345.6"
   version="1.1"
   id="svg153"
   sodipodi:docname="links.svg"
   inkscape:version="1.2 (dc2aedaf03, 2022-05-15)"
   xmlns:inkscape="http://www.inkscape.org/namespaces/inkscape"
   xmlns:sodipodi="http://sodipodi.sourceforge.net/DTD/sodipodi-0.dtd"
   xmlns:xlink="http://www.w3.org/1999/xlink"
   xmlns="http://www.w3.org/2000/svg"
   xmlns:svg="http://www.w3.org/2000/svg"
   xmlns:rdf="http://www.w3.org/1999/02/22-rdf-syntax-ns#"
   xmlns:cc="http://creativecommons.org/ns#"
   xmlns:dc="http://purl.org/dc/elements/1.1/">
  <sodipodi:namedview
     id="namedview155"
     pagecolor="#ffffff"
     bordercolor="#666666"
     borderopacity="1.0"
     inkscape:showpageshadow="2"
     inkscape:pageopacity="0.0"
     inkscape:pagecheckerboard="0"
     inkscape:deskcolor="#d1d1d1"
     inkscape:document-units="pt"
     showgrid="false"
     inkscape:zoom="1.2889967"
     inkscape:cx="24.825509"
     inkscape:cy="221.10219"
     inkscape:window-width="1920"
     inkscape:window-height="1042"
     inkscape:window-x="0"
     inkscape:window-y="38"
     inkscape:window-maximized="1"
     inkscape:current-layer="svg153" />
  <metadata
     id="metadata2">
    <rdf:RDF>
      <cc:Work>
        <dc:type
           rdf:resource="http://purl.org/dc/dcmitype/StillImage" />
        <dc:date>2022-06-27T00:12:44.718486</dc:date>
        <dc:format>image/svg+xml</dc:format>
        <dc:creator>
          <cc:Agent>
            <dc:title>Matplotlib v3.5.2, https://matplotlib.org/</dc:title>
          </cc:Agent>
        </dc:creator>
      </cc:Work>
    </rdf:RDF>
  </metadata>
  <defs
     id="defs6">
    <style
       type="text/css"
       id="style4">*{stroke-linejoin: round; stroke-linecap: butt}</style>
  </defs>
  <path
     d="M 230.15887,29.990083 C 39.158568,20.003374 39.333546,-11.91686 39.986777,172.98099"
     clip-path="url(#p632f1cac0b)"
     style="fill:none;stroke:#000000"
     id="path708"
     sodipodi:nodetypes="cc"
     transform="matrix(1,0,0,-1,0,346.37218)" />
  <path
     d="M 230.15887,29.990083 C 39.158568,20.003374 39.333546,-11.91686 39.986777,172.98099"
     clip-path="url(#p632f1cac0b)"
     style="fill:none;stroke:#000000"
     id="path706"
     sodipodi:nodetypes="cc"
     transform="rotate(180,230.05097,173.18609)" />
  <path
     d="M 230.15887,29.990083 C 39.158568,20.003374 39.333546,-11.91686 39.986777,172.98099"
     clip-path="url(#p632f1cac0b)"
     style="fill:none;stroke:#000000"
     id="path704"
     sodipodi:nodetypes="cc"
     transform="matrix(-1,0,0,1,460.10194,0)" />
  <path
     d="M 230.15887,29.990083 364.8733,71.689751"
     clip-path="url(#p632f1cac0b)"
     style="fill:none;stroke:#000000"
     id="path13" />
  <path
     d="M 230.15887,29.990083 95.585456,71.945329"
     clip-path="url(#p632f1cac0b)"
     style="fill:none;stroke:#000000"
     id="path15" />
  <path
     d="M 230.15887,29.990083 C 39.158568,20.003374 39.333546,-11.91686 39.986777,172.98099"
     clip-path="url(#p632f1cac0b)"
     style="fill:none;stroke:#000000"
     id="path17"
     sodipodi:nodetypes="cc" />
  <path
     d="M 420.81322,172.61918 364.8733,71.689751"
     clip-path="url(#p632f1cac0b)"
     style="fill:none;stroke:#000000"
     id="path19" />
  <path
     d="M 420.81322,172.61918 365.21553,273.65525"
     clip-path="url(#p632f1cac0b)"
     style="fill:none;stroke:#000000"
     id="path23" />
  <path
     d="M 364.8733,71.689751 95.585456,71.945329"
     clip-path="url(#p632f1cac0b)"
     style="fill:none;stroke:#000000"
     id="path25" />
  <path
     d="m 364.8733,71.689751 0.34223,201.965499"
     clip-path="url(#p632f1cac0b)"
     style="fill:none;stroke:#000000"
     id="path27" />
  <path
     d="M 95.585456,71.945329 39.986777,172.98099"
     clip-path="url(#p632f1cac0b)"
     style="fill:none;stroke:#000000"
     id="path29" />
  <path
     d="M 95.585456,71.945329 95.927392,273.91044"
     clip-path="url(#p632f1cac0b)"
     style="fill:none;stroke:#000000"
     id="path31" />
  <path
     d="M 39.986777,172.98099 95.927392,273.91044"
     clip-path="url(#p632f1cac0b)"
     style="fill:none;stroke:#000000"
     id="path35" />
  <path
     d="M 230.64152,315.60992 365.21553,273.65525"
     clip-path="url(#p632f1cac0b)"
     style="fill:none;stroke:#000000"
     id="path37" />
  <path
     d="M 230.64152,315.60992 95.927392,273.91044"
     clip-path="url(#p632f1cac0b)"
     style="fill:none;stroke:#000000"
     id="path39" />
  <path
     d="M 365.21553,273.65525 95.927392,273.91044"
     clip-path="url(#p632f1cac0b)"
     style="fill:none;stroke:#000000"
     id="path41" />
  <g
     id="PathCollection_1">
    <defs
       id="defs45">
      <path
         id="m3afff953f9"
         d="m 0,15.811388 c 4.193229,0 8.215279,-1.665987 11.18034,-4.631048 C 14.145401,8.215279 15.811388,4.193229 15.811388,0 c 0,-4.193229 -1.665987,-8.215279 -4.631048,-11.18034 C 8.215279,-14.145401 4.193229,-15.811388 0,-15.811388 c -4.193229,0 -8.215279,1.665987 -11.18034,4.631048 -2.965061,2.965061 -4.631048,6.987111 -4.631048,11.18034 0,4.193229 1.665987,8.215279 4.631048,11.18034 2.965061,2.965061 6.987111,4.631048 11.18034,4.631048 z"
         style="stroke:#1f78b4" />
    </defs>
    <g
       clip-path="url(#p632f1cac0b)"
       id="g63">
      <use
         xlink:href="#m3afff953f9"
         x="230.15887"
         y="29.990084"
         style="fill:#1f78b4;stroke:#1f78b4"
         id="use47" />
      <use
         xlink:href="#m3afff953f9"
         x="420.81323"
         y="172.61919"
         style="fill:#1f78b4;stroke:#1f78b4"
         id="use49" />
      <use
         xlink:href="#m3afff953f9"
         x="364.87329"
         y="71.689751"
         style="fill:#1f78b4;stroke:#1f78b4"
         id="use51" />
      <use
         xlink:href="#m3afff953f9"
         x="95.585457"
         y="71.945328"
         style="fill:#1f78b4;stroke:#1f78b4"
         id="use53" />
      <use
         xlink:href="#m3afff953f9"
         x="39.986778"
         y="172.98099"
         style="fill:#1f78b4;stroke:#1f78b4"
         id="use55" />
      <use
         xlink:href="#m3afff953f9"
         x="230.64153"
         y="315.60992"
         style="fill:#1f78b4;stroke:#1f78b4"
         id="use57" />
      <use
         xlink:href="#m3afff953f9"
         x="365.21555"
         y="273.65524"
         style="fill:#1f78b4;stroke:#1f78b4"
         id="use59" />
      <use
         xlink:href="#m3afff953f9"
         x="95.927391"
         y="273.91043"
         style="fill:#1f78b4;stroke:#1f78b4"
         id="use61" />
    </g>
  </g>
  <g
     id="text_1">
    <g
       clip-path="url(#p632f1cac0b)"
       id="g73">
      <!-- 1 -->
      <g
         transform="matrix(0.1,0,0,-0.1,226.97762,32.749458)"
         id="g71">
        <defs
           id="defs67">
          <path
             id="DejaVuSans-31"
             d="M 794,531 H 1825 V 4091 L 703,3866 v 575 l 1116,225 h 631 V 531 H 3481 V 0 H 794 Z"
             transform="scale(0.015625)" />
        </defs>
        <use
           xlink:href="#DejaVuSans-31"
           id="use69" />
      </g>
    </g>
  </g>
  <g
     id="text_2">
    <g
       clip-path="url(#p632f1cac0b)"
       id="g83">
      <!-- 2 -->
      <g
         transform="matrix(0.1,0,0,-0.1,417.63197,175.37856)"
         id="g81">
        <defs
           id="defs77">
          <path
             id="DejaVuSans-32"
             d="M 1228,531 H 3431 V 0 H 469 v 531 q 359,372 979,998 621,627 780,809 303,340 423,576 121,236 121,464 0,372 -261,606 -261,235 -680,235 -297,0 -627,-103 -329,-103 -704,-313 v 638 q 381,153 712,231 332,78 607,78 725,0 1156,-363 431,-362 431,-968 0,-288 -108,-546 -107,-257 -392,-607 -78,-91 -497,-524 Q 1991,1309 1228,531 Z"
             transform="scale(0.015625)" />
        </defs>
        <use
           xlink:href="#DejaVuSans-32"
           id="use79" />
      </g>
    </g>
  </g>
  <g
     id="text_3">
    <g
       clip-path="url(#p632f1cac0b)"
       id="g93">
      <!-- 3 -->
      <g
         transform="matrix(0.1,0,0,-0.1,361.69205,74.449126)"
         id="g91">
        <defs
           id="defs87">
          <path
             id="DejaVuSans-33"
             d="m 2597,2516 q 453,-97 707,-404 255,-306 255,-756 0,-690 -475,-1069 -475,-378 -1350,-378 -293,0 -604,58 -311,58 -642,174 v 609 q 262,-153 574,-231 313,-78 654,-78 593,0 904,234 311,234 311,681 0,413 -289,645 -289,233 -804,233 h -544 v 519 h 569 q 465,0 712,186 247,186 247,536 0,359 -255,551 -254,193 -729,193 -260,0 -557,-57 -297,-56 -653,-174 v 562 q 360,100 674,150 314,50 592,50 719,0 1137,-327 419,-326 419,-882 0,-388 -222,-655 -222,-267 -631,-370 z"
             transform="scale(0.015625)" />
        </defs>
        <use
           xlink:href="#DejaVuSans-33"
           id="use89" />
      </g>
    </g>
  </g>
  <g
     id="text_4">
    <g
       clip-path="url(#p632f1cac0b)"
       id="g103">
      <!-- 4 -->
      <g
         transform="matrix(0.1,0,0,-0.1,92.404206,74.704704)"
         id="g101">
        <defs
           id="defs97">
          <path
             id="DejaVuSans-34"
             d="M 2419,4116 825,1625 h 1594 z m -166,550 h 794 V 1625 h 666 V 1100 H 3047 V 0 H 2419 V 1100 H 313 v 609 z"
             transform="scale(0.015625)" />
        </defs>
        <use
           xlink:href="#DejaVuSans-34"
           id="use99" />
      </g>
    </g>
  </g>
  <g
     id="text_5">
    <g
       clip-path="url(#p632f1cac0b)"
       id="g113">
      <!-- 5 -->
      <g
         transform="matrix(0.1,0,0,-0.1,36.805527,175.74037)"
         id="g111">
        <defs
           id="defs107">
          <path
             id="DejaVuSans-35"
             d="M 691,4666 H 3169 V 4134 H 1269 V 2991 q 137,47 274,70 138,23 276,23 781,0 1237,-428 457,-428 457,-1159 Q 3513,744 3044,326 2575,-91 1722,-91 1428,-91 1123,-41 819,9 494,109 v 635 q 281,-153 581,-228 300,-75 634,-75 541,0 856,284 316,284 316,772 0,487 -316,771 -315,285 -856,285 -253,0 -505,-56 -251,-56 -513,-175 z"
             transform="scale(0.015625)" />
        </defs>
        <use
           xlink:href="#DejaVuSans-35"
           id="use109" />
      </g>
    </g>
  </g>
  <g
     id="text_6">
    <g
       clip-path="url(#p632f1cac0b)"
       id="g123">
      <!-- 6 -->
      <g
         transform="matrix(0.1,0,0,-0.1,227.46027,318.36929)"
         id="g121">
        <defs
           id="defs117">
          <path
             id="DejaVuSans-36"
             d="m 2113,2584 q -425,0 -674,-291 -248,-290 -248,-796 0,-503 248,-796 249,-292 674,-292 425,0 673,292 248,293 248,796 0,506 -248,796 -248,291 -673,291 z m 1253,1979 v -575 q -238,112 -480,171 -242,60 -480,60 -625,0 -955,-422 -329,-422 -376,-1275 184,272 462,417 279,145 613,145 703,0 1111,-427 408,-426 408,-1160 0,-719 -425,-1154 -425,-434 -1131,-434 -810,0 -1238,620 -428,621 -428,1799 0,1106 525,1764 525,658 1409,658 238,0 480,-47 242,-47 505,-140 z"
             transform="scale(0.015625)" />
        </defs>
        <use
           xlink:href="#DejaVuSans-36"
           id="use119" />
      </g>
    </g>
  </g>
  <g
     id="text_7">
    <g
       clip-path="url(#p632f1cac0b)"
       id="g133">
      <!-- 7 -->
      <g
         transform="matrix(0.1,0,0,-0.1,362.03428,276.41463)"
         id="g131">
        <defs
           id="defs127">
          <path
             id="DejaVuSans-37"
             d="M 525,4666 H 3525 V 4397 L 1831,0 H 1172 L 2766,4134 H 525 Z"
             transform="scale(0.015625)" />
        </defs>
        <use
           xlink:href="#DejaVuSans-37"
           id="use129" />
      </g>
    </g>
  </g>
  <g
     id="text_8">
    <g
       clip-path="url(#p632f1cac0b)"
       id="g143">
      <!-- 8 -->
      <g
         transform="matrix(0.1,0,0,-0.1,92.746142,276.66982)"
         id="g141">
        <defs
           id="defs137">
          <path
             id="DejaVuSans-38"
             d="m 2034,2216 q -450,0 -708,-241 -257,-241 -257,-662 0,-422 257,-663 258,-241 708,-241 450,0 709,242 260,243 260,662 0,421 -258,662 -257,241 -711,241 z m -631,268 q -406,100 -633,378 -226,279 -226,679 0,559 398,884 399,325 1092,325 697,0 1094,-325 397,-325 397,-884 0,-400 -227,-679 -226,-278 -629,-378 456,-106 710,-416 255,-309 255,-755 Q 3634,634 3220,271 2806,-91 2034,-91 1263,-91 848,271 434,634 434,1313 q 0,446 256,755 257,310 713,416 z m -231,997 q 0,-362 226,-565 227,-203 636,-203 407,0 636,203 230,203 230,565 0,363 -230,566 -229,203 -636,203 -409,0 -636,-203 -226,-203 -226,-566 z"
             transform="scale(0.015625)" />
        </defs>
        <use
           xlink:href="#DejaVuSans-38"
           id="use139" />
      </g>
    </g>
  </g>
  <defs
     id="defs151">
    <clipPath
       id="p632f1cac0b">
      <rect
         x="0"
         y="0"
         width="460.8"
         height="345.6"
         id="rect148" />
    </clipPath>
  </defs>
</svg>
